# xmcd
#
# Track frame offsets:
#	150
#	14474
#	26434
#	41010
#	54078
#	69434
#	80572
#	92084
#	109492
#	127351
#	145538
#	154232
#	167423
#	175754
#	192183
#	209908
#	222077
#	235220
#	251683
#	263694
#	279285
#	293128
#
# Disc length: 4137 seconds
#
# Revision: 0
# Processed by: cddbd v1.5.2PL0 Copyright (c) Steve Scherf et al.
# Submitted via: EZCDAudioConverter 4.0.5.1
#
DISCID=3e102716
DTITLE=MULTI MUSIC GROUP - HOTT URBAN # 51 CAN
DYEAR=2019
DGENRE=RAP
TTITLE0=Nicki Minaj - Megatron [SUPER CLEAN]
TTITLE1=DaBaby ft. Offset - Baby Sitter
TTITLE2=Megan Thee Stallion - Cash Sh*t [EXTRA SUPER CLEAN]
TTITLE3=Lizzo - Truth Hurts
TTITLE4=Migos - Stripper Bowl
TTITLE5=Ari Lennox - BMO
TTITLE6=Blueface ft. Rich The Kid - Daddy
TTITLE7=Queen Naija - Away From You
TTITLE8=Rotimi - Love Riddim [8 BAR INTRO EDIT]
TTITLE9=Lud Foe ft. Lil Uzi Vert - Show Off
TTITLE10=Lil Nas X - Panini
TTITLE11=Moneybagg Yo ft. Gunna - Dior
TTITLE12=Ambjaay - Uno [SUPER CLEAN]
TTITLE13=The Bonfyre ft. 6lack - U Say
TTITLE14=BJ The Chicago Kid ft. Offset - Worryin' Bout Me
TTITLE15=Tyga ft. J. Balvin and Chris Brown\n - Haute
TTITLE16=Post Malone ft. Young Thug - Goodbyes
TTITLE17=Anderson .Paak ft. Smokey Robinson - Make It Better
TTITLE18=Raphael Saadiq ft. Rob Bacon - Something Keeps Calling
TTITLE19=HappyBirthdayCalvin ft. Tati - Kari's Song (Long Way Home)
TTITLE20=Trouble ft. City Girls - She's A Winner
TTITLE21=Jeezy - 1 Time
EXTD=
EXTT0=
EXTT1=
EXTT2=
EXTT3=
EXTT4=
EXTT5=
EXTT6=
EXTT7=
EXTT8=
EXTT9=
EXTT10=
EXTT11=
EXTT12=
EXTT13=
EXTT14=
EXTT15=
EXTT16=
EXTT17=
EXTT18=
EXTT19=
EXTT20=
EXTT21=
PLAYORDER=
